<!--?xml version="1.0" standalone="no"?-->
              <svg id="sw-js-blob-svg" viewBox="0 0 100 100" xmlns="http://www.w3.org/2000/svg" version="1.1">
                    <defs> 
                        <linearGradient id="sw-gradient" x1="0" x2="1" y1="1" y2="0">
                            <stop id="stop1" stop-color="rgba(248, 117, 55, 1)" offset="0%"></stop>
                            <stop id="stop2" stop-color="rgba(251, 168, 31, 1)" offset="100%"></stop>
                        </linearGradient>
                    </defs>
                <path fill="url(#sw-gradient)" d="M21.5,-24.4C27.9,-20.2,33.3,-13.5,33.8,-6.6C34.2,0.4,29.8,7.5,25.4,14.2C21,20.9,16.5,27.1,10.6,29.3C4.7,31.5,-2.7,29.7,-10,27.2C-17.3,24.7,-24.4,21.4,-29,15.7C-33.5,9.9,-35.6,1.6,-33.7,-5.4C-31.8,-12.4,-25.9,-18.1,-19.6,-22.3C-13.3,-26.5,-6.7,-29.2,0.4,-29.7C7.5,-30.2,15.1,-28.5,21.5,-24.4Z" width="100%" height="100%" transform="translate(50 50)" stroke-width="0" style="transition: 0.3s;"></path>
              </svg>